<?xml version="1.0" encoding="utf-8"?>
<!-- Generator: Adobe Illustrator 16.0.0, SVG Export Plug-In . SVG Version: 6.00 Build 0)  -->
<!DOCTYPE svg PUBLIC "-//W3C//DTD SVG 1.1//EN" "http://www.w3.org/Graphics/SVG/1.1/DTD/svg11.dtd">
<svg version="1.1" id="Layer_1" xmlns="http://www.w3.org/2000/svg" xmlns:xlink="http://www.w3.org/1999/xlink" x="0px" y="0px"
	 width="256px" height="512px" viewBox="144.5 0 256 512" enable-background="new 144.5 0 256 512" xml:space="preserve">
<title>Dna</title>
<linearGradient id="SVGID_1_" gradientUnits="userSpaceOnUse" x1="264" y1="476.3555" x2="264" y2="-5.2696" gradientTransform="matrix(1 0 0 -1 8.5 488)">
	<stop  offset="0" style="stop-color:#00EFD1"/>
	<stop  offset="1" style="stop-color:#00ACEA"/>
</linearGradient>
<path fill="url(#SVGID_1_)" d="M363.055,33.38c0-4.418-3.581-8-8-8c-4.418,0-8,3.582-8,8c0.12,12.254-2.359,24.395-7.275,35.62
	H205.222c-4.917-11.226-7.396-23.366-7.276-35.62c0-4.418-3.582-8-8-8s-8,3.582-8,8c0,55.287,37.271,84.678,76.284,111.307
	c-39.014,26.63-76.284,56.02-76.284,111.308s37.271,84.682,76.285,111.313c-39.015,26.629-76.285,56.021-76.285,111.312
	c0,4.418,3.582,8,8,8s8-3.582,8-8c-0.188-15.29,3.723-30.353,11.325-43.62h126.46c7.602,13.268,11.512,28.33,11.324,43.62
	c0,4.418,3.582,8,8,8c4.419,0,8-3.582,8-8c0-55.29-37.271-84.683-76.285-111.312c39.015-26.632,76.285-56.023,76.285-111.313
	s-37.271-84.678-76.283-111.308C325.784,118.058,363.055,88.667,363.055,33.38z M324.277,419H220.724
	c13.762-15.891,32.349-28.909,51.776-42.041C291.928,390.091,310.516,403.109,324.277,419z M272.5,357.656
	c-23.583-15.939-45.938-31.706-59.909-52.656h119.818C318.438,325.95,296.083,341.717,272.5,357.656z M340.885,289h-136.77
	c-7.947-20.545-8.226-43.266-0.786-64h138.342C349.111,245.734,348.832,268.455,340.885,289L340.885,289z M333.7,209H211.3
	c13.857-21.955,36.871-38.219,61.2-54.661C296.828,170.781,319.842,187.045,333.7,209z M272.5,135.036
	C249.909,119.767,228.438,104.66,214.392,85h116.218C316.562,104.66,295.091,119.767,272.5,135.036z"/>
</svg>
