<svg height="512pt" viewBox="0 0 512 512" width="512pt" xmlns="http://www.w3.org/2000/svg" xmlns:xlink="http://www.w3.org/1999/xlink"><linearGradient id="a" gradientUnits="userSpaceOnUse" x1="255.9998618208" x2="255.9998618208" y1=".000125" y2="511.1261207984"><stop offset="0" stop-color="#2af598"/><stop offset="1" stop-color="#009efd"/></linearGradient><path d="m512 256.941406h-123.28125l41.097656-161.109375-221.550781 272.945313h120.683594l-32.714844 142.285156zm-219.878906 71.898438 54.015625-66.546875-8.824219 34.585937h88.386719l-53.8125 63.378906 7.222656-31.417968zm-166.464844 6.949218c-6.503906 6.5-10.082031 15.144532-10.082031 24.339844 0 9.195313 3.578125 17.839844 10.082031 24.34375l-28.238281 28.238282c-14.046875-14.042969-21.78125-32.71875-21.78125-52.582032 0-19.863281 7.734375-38.535156 21.78125-52.582031l25.640625-25.640625 28.238281 28.242188zm134.417969 72.921876h18.714843l-11.277343 49.042968-9.019531 9.023438c-28.601563 28.597656-66.625 44.351562-107.070313 44.351562s-78.472656-15.753906-107.070313-44.351562c-28.601562-28.601563-44.351562-66.625-44.351562-107.070313 0-40.445312 15.75-78.472656 44.351562-107.070312l208.355469-208.359375c59.039063-59.035156 155.101563-59.039063 214.140625 0 28.601563 28.601562 44.347656 66.625 44.347656 107.070312 0 23.113282-5.148437 45.429688-14.894531 65.652344h-46.402343c13.867187-18.949219 21.363281-41.722656 21.363281-65.652344 0-29.777344-11.597657-57.773437-32.652344-78.828125-43.46875-43.464843-114.195313-43.46875-157.660156 0l-90.324219 90.324219 73.609375 73.609375-25.304687 31.175781-76.546876-76.546875-89.789062 89.792969c-21.058594 21.054688-32.65625 49.050781-32.65625 78.832031 0 29.777344 11.597656 57.773438 32.652344 78.828125 21.058594 21.058594 49.054687 32.652344 78.832031 32.652344s57.773437-11.59375 78.828125-32.652344zm0 0" fill="url(#a)"/></svg>