<svg height="512pt" viewBox="0 0 512 512" width="512pt" xmlns="http://www.w3.org/2000/svg" xmlns:xlink="http://www.w3.org/1999/xlink"><linearGradient id="a" gradientUnits="userSpaceOnUse" x1="0" x2="512" y1="256" y2="256"><stop offset="0" stop-color="#00f38d"/><stop offset="1" stop-color="#009eff"/></linearGradient><path d="m512 256c0 141.386719-114.613281 256-256 256s-256-114.613281-256-256 114.613281-256 256-256 256 114.613281 256 256zm0 0" fill="url(#a)"/><g fill="#fff"><path d="m413.992188 248.3125h-76.152344l25.488281-99.910156-137.359375 169.226562h74.542969l-20.285157 88.230469zm-135.53125 44.316406 32.484374-40.023437-5.285156 20.707031h54.308594l-32.386719 38.144531 4.328125-18.828125zm0 0"/><path d="m192.457031 282.496094-19.800781-19.800782-15.804688 15.808594c-18.527343 18.527344-18.527343 48.679688 0 67.207032l19.800782-19.796876c-7.613282-7.613281-7.613282-20 0-27.613281zm0 0"/><path d="m239.921875 360.429688c-12.976563 12.980468-30.230469 20.125-48.585937 20.125-18.355469 0-35.609376-7.144532-48.585938-20.125-12.980469-12.976563-20.128906-30.230469-20.128906-48.585938s7.148437-35.609375 20.128906-48.585938l55.34375-55.34375 47.175781 47.179688 15.597657-19.214844-45.371094-45.371094 55.671875-55.671874c26.792969-26.789063 70.382812-26.789063 97.175781 0 12.976562 12.980468 20.125 30.234374 20.125 48.589843 0 14.746094-4.621094 28.785157-13.167969 40.464844h28.601563c6.007812-12.464844 9.183594-26.222656 9.183594-40.464844 0-24.929687-9.710938-48.367187-27.335938-65.996093-36.390625-36.386719-95.597656-36.386719-131.988281 0l-128.417969 128.421874c-17.628906 17.625-27.335938 41.0625-27.335938 65.992188s9.707032 48.367188 27.335938 65.992188c17.628906 17.628906 41.0625 27.335937 65.992188 27.335937 24.929687 0 48.363281-9.707031 65.992187-27.335937l5.5625-5.558594 6.949219-30.226563h-11.535156zm0 0"/></g></svg>