<?xml version="1.0" encoding="utf-8"?>
<!-- Generator: Adobe Illustrator 16.0.0, SVG Export Plug-In . SVG Version: 6.00 Build 0)  -->
<!DOCTYPE svg PUBLIC "-//W3C//DTD SVG 1.1//EN" "http://www.w3.org/Graphics/SVG/1.1/DTD/svg11.dtd">
<svg version="1.1" id="Layer_1" xmlns="http://www.w3.org/2000/svg" xmlns:xlink="http://www.w3.org/1999/xlink" x="0px" y="0px"
	 width="612px" height="792px" viewBox="0 0 612 792" enable-background="new 0 0 612 792" xml:space="preserve">
<g>
	<g id="XMLID_1_">
		<g>
			<path d="M478.59,300.12c2.04,4.08,1.021,8.16-1.02,11.22L151.17,698.94c-2.04,2.04-5.1,3.06-8.16,3.06c-2.04,0-4.08,0-5.1-1.02
				c-4.08-3.061-6.12-8.16-4.08-12.24L248.07,416.4H143.01c-3.06,0-7.14-2.04-9.18-5.101c-2.04-3.06-2.04-7.14,0-10.2l153-306
				c2.04-3.06,5.1-5.1,9.18-5.1h163.2c4.08,0,7.14,2.04,9.18,5.1s2.04,7.14,0,10.2L349.05,294h120.36
				C473.49,294,476.55,296.04,478.59,300.12z M178.71,633.66L447.99,314.4H329.67c-4.08,0-7.14-2.04-9.18-5.1
				c-2.04-3.06-2.04-7.14,0-10.2L440.85,110.4H302.13L159.33,396h104.04c3.06,0,6.12,2.04,8.16,4.08c2.04,3.06,2.04,6.12,1.02,9.18
				L178.71,633.66z"/>
			<path fill="#FFC200" d="M447.99,314.4L178.71,633.66l93.84-224.4c1.02-3.06,1.02-6.12-1.02-9.18c-2.04-2.04-5.1-4.08-8.16-4.08
				H159.33l142.8-285.6h138.72L320.49,299.1c-2.04,3.06-2.04,7.14,0,10.2c2.04,3.06,5.1,5.1,9.18,5.1H447.99z"/>
		</g>
		<g>
			<path fill="none" stroke="#726B18" stroke-miterlimit="10" d="M478.59,300.12c-2.04-4.08-5.1-6.12-9.18-6.12H349.05l119.34-188.7
				c2.04-3.06,2.04-7.14,0-10.2s-5.1-5.1-9.18-5.1h-163.2c-4.08,0-7.14,2.04-9.18,5.1l-153,306c-2.04,3.061-2.04,7.141,0,10.2
				c2.04,3.061,6.12,5.101,9.18,5.101h105.06L133.83,688.74c-2.04,4.08,0,9.18,4.08,12.24c1.02,1.02,3.06,1.02,5.1,1.02
				c3.06,0,6.12-1.02,8.16-3.06l326.4-387.601C479.61,308.28,480.63,304.2,478.59,300.12z"/>
			<path fill="none" stroke="#726B18" stroke-miterlimit="10" d="M178.71,633.66l93.84-224.4c1.02-3.06,1.02-6.12-1.02-9.18
				c-2.04-2.04-5.1-4.08-8.16-4.08H159.33l142.8-285.6h138.72L320.49,299.1c-2.04,3.06-2.04,7.14,0,10.2c2.04,3.06,5.1,5.1,9.18,5.1
				h118.32L178.71,633.66z"/>
		</g>
	</g>
</g>
</svg>
